<?xml version="1.0" ?><svg id="Layer_1" style="enable-background:new 0 0 62 62;" version="1.1" viewBox="0 0 62 62" xml:space="preserve" xmlns="http://www.w3.org/2000/svg" xmlns:xlink="http://www.w3.org/1999/xlink"><style type="text/css">
	.st0{fill:#5FD2FF;}
	.st1{fill:#FFFFFF;}
	.st2{fill:#0082ED;}
	.st3{fill:#2BA8FC;}
	.st4{fill:#CECECE;}
	.st5{fill:#F92B75;}
	.st6{fill:#3BB0FF;}
	.st7{fill:#CE004F;}
	.st8{fill:none;stroke:#ED0C68;stroke-width:5;stroke-linecap:round;stroke-linejoin:round;stroke-miterlimit:10;}
	.st9{fill:#ED0C68;}
	.st10{fill:#78DED4;}
	.st11{fill:#1E5363;}
	.st12{fill:#54C8E8;}
	.st13{fill:#F4F4F4;}
	.st14{fill:#0C82EB;}
	.st15{fill:#00B2E3;}
	.st16{fill:#68A2B9;}
	.st17{fill:#A2C5D3;}
	.st18{fill:#76777A;}
	.st19{fill:#A7A8A9;}
	.st20{fill:#D6D6D6;}
	.st21{fill:none;stroke:#F92B75;stroke-width:5;stroke-linecap:round;stroke-linejoin:round;stroke-miterlimit:10;}
	.st22{fill:#FD4A5C;}
	.st23{fill:#FF8E9F;}
	.st24{fill:none;stroke:#F458A3;stroke-width:5;stroke-linecap:round;stroke-linejoin:round;stroke-miterlimit:10;}
	.st25{fill:#FFB259;}
	.st26{fill:#F32735;}
	.st27{fill:#FF9E18;}
	.st28{fill:#FFC27A;}
	.st29{fill:#FFC56D;}
	.st30{fill:none;stroke:#FD4A5C;stroke-width:5;stroke-linecap:round;stroke-linejoin:round;stroke-miterlimit:10;}
	.st31{fill:#0069A7;}
	.st32{fill:#D8D8D8;}
	.st33{fill:#8CB7C9;}
	.st34{fill:#65BAAF;}
	.st35{fill:#00AF9A;}
	.st36{fill:#00C4B3;}
	.st37{fill:#19D3C5;}
	.st38{fill:none;stroke:#54C8E8;stroke-width:5;stroke-linecap:round;stroke-linejoin:round;stroke-miterlimit:10;}
	.st39{fill:#8331A7;}
	.st40{fill:#009383;}
	.st41{fill:#98989A;}
	.st42{fill:#636569;}
	.st43{fill:#898A8D;}
	.st44{fill:#FFB548;}
	.st45{fill:none;stroke:#FFB548;stroke-width:5;stroke-linecap:round;stroke-linejoin:round;stroke-miterlimit:10;}
	.st46{fill:#ED40A9;}
	.st47{fill:#CB007B;}
	.st48{fill:#E50695;}
	.st49{fill:#D7282F;}
	.st50{fill:#E5E5E5;}
	.st51{fill:#FFA4B4;}
	.st52{fill:#F6A7D7;}
	.st53{fill:#F478C4;}
	.st54{fill:#E0C7E6;}
	.st55{fill:#B980D0;}
	.st56{fill:#D9B7E2;}
	.st57{fill:#BADF93;}
	.st58{fill:#4C9C2E;}
	.st59{fill:#3DAE2B;}
	.st60{fill:#AADA91;}
	.st61{fill:#6ABF4B;}
	.st62{fill:#EFB8A9;}
	.st63{fill:#FECB8B;}
	.st64{fill:#BDE8EF;}
	.st65{fill:#CCA1DD;}
	.st66{fill:#B2B2B2;}
	.st67{fill:none;stroke:#FF8300;stroke-width:5;stroke-linecap:round;stroke-linejoin:round;stroke-miterlimit:10;}
	.st68{fill:none;stroke:#FF9E18;stroke-width:5;stroke-linecap:round;stroke-linejoin:round;stroke-miterlimit:10;}
	.st69{fill:#96DAEA;}
	.st70{fill:#FF8300;}
	.st71{fill:none;stroke:#6ABF4B;stroke-width:5;stroke-linecap:round;stroke-linejoin:round;stroke-miterlimit:10;}
	.st72{fill:none;}
	.st73{fill:#444444;}
	.st74{fill:#FDCF85;}
</style><g><polygon class="st10" points="59.5,43.23 35.04,38.28 35.04,23.72 59.5,18.77  "/><path class="st2" d="M59.5,45.73c-0.17,0-0.33-0.02-0.5-0.05l-24.46-4.95c-1.17-0.24-2-1.26-2-2.45V23.72c0-1.19,0.84-2.21,2-2.45   L59,16.32c0.73-0.15,1.5,0.04,2.08,0.52S62,18.02,62,18.77v24.46c0,0.75-0.34,1.46-0.92,1.94C60.63,45.53,60.07,45.73,59.5,45.73z    M37.54,36.24L57,40.17V21.83l-19.46,3.94V36.24z"/><path class="st10" d="M45.67,48.15H4.42c-1.06,0-1.92-0.86-1.92-1.92V15.77c0-1.06,0.86-1.92,1.92-1.92h41.25   c1.06,0,1.92,0.86,1.92,1.92v30.46C47.6,47.29,46.74,48.15,45.67,48.15z"/><rect class="st1" height="8.57" width="45.1" x="2.5" y="13.85"/><polygon class="st11" points="41.07,13.85 34.32,22.42 26.32,22.42 33.07,13.85  "/><path class="st11" d="M47.6,15.77v6.65h-6.78l6.27-7.96C47.4,14.8,47.6,15.26,47.6,15.77z"/><path class="st2" d="M45.67,50.65H4.42C1.98,50.65,0,48.66,0,46.23V15.77c0-2.11,1.5-3.93,3.57-4.34c0.02,0,0.03-0.01,0.05-0.01   c0.25-0.05,0.52-0.08,0.8-0.08h41.25c1.21,0,2.39,0.51,3.23,1.39c0.77,0.82,1.2,1.9,1.2,3.03v30.45   C50.1,48.66,48.11,50.65,45.67,50.65z M5,45.65h40.1v-29.3H5V45.65z"/><path class="st11" d="M12.08,13.85l-6.74,8.57H2.5v-6.55l1.56-1.98c0.12-0.03,0.24-0.04,0.37-0.04H12.08z"/><polygon class="st11" points="26.58,13.85 19.83,22.42 11.83,22.42 18.58,13.85  "/><path class="st12" d="M2.5,33.5C1.12,33.5,0,32.38,0,31V15.87c0-2.2,1.48-4.01,3.53-4.43c0.28-0.06,0.57-0.09,0.89-0.09h20.63   c1.38,0,2.5,1.12,2.5,2.5s-1.12,2.5-2.5,2.5H5V31C5,32.38,3.88,33.5,2.5,33.5z"/></g></svg>